<mxfile host="app.diagrams.net" modified="2021-10-08T13:18:38.357Z" agent="5.0 (Windows NT 10.0; Win64; x64) AppleWebKit/537.36 (KHTML, like Gecko) Chrome/94.0.4606.81 Safari/537.36" etag="S535PWicW3cAaVJTPfTW" version="15.4.3" type="github">
  <diagram id="R2lEEEUBdFMjLlhIrx00" name="Page-1">
    <mxGraphModel dx="1021" dy="1667" grid="1" gridSize="10" guides="1" tooltips="1" connect="1" arrows="1" fold="1" page="1" pageScale="1" pageWidth="850" pageHeight="1100" math="0" shadow="0" extFonts="Permanent Marker^https://fonts.googleapis.com/css?family=Permanent+Marker">
      <root>
        <mxCell id="0" />
        <mxCell id="1" parent="0" />
        <mxCell id="MHLFip0s-MAFoOC3pPTf-1" value="" style="triangle;whiteSpace=wrap;html=1;" parent="1" vertex="1">
          <mxGeometry x="50" y="160" width="60" height="80" as="geometry" />
        </mxCell>
        <mxCell id="MHLFip0s-MAFoOC3pPTf-2" value="Entity" style="whiteSpace=wrap;html=1;align=center;" parent="1" vertex="1">
          <mxGeometry x="20" y="290" width="100" height="40" as="geometry" />
        </mxCell>
        <mxCell id="MHLFip0s-MAFoOC3pPTf-4" value="Attribute" style="ellipse;whiteSpace=wrap;html=1;align=center;" parent="1" vertex="1">
          <mxGeometry x="30" y="380" width="100" height="40" as="geometry" />
        </mxCell>
        <mxCell id="MHLFip0s-MAFoOC3pPTf-10" style="edgeStyle=orthogonalEdgeStyle;rounded=0;orthogonalLoop=1;jettySize=auto;html=1;exitX=1;exitY=0.5;exitDx=0;exitDy=0;entryX=0;entryY=0.5;entryDx=0;entryDy=0;endArrow=none;endFill=0;" parent="1" source="MHLFip0s-MAFoOC3pPTf-5" target="MHLFip0s-MAFoOC3pPTf-6" edge="1">
          <mxGeometry relative="1" as="geometry" />
        </mxCell>
        <mxCell id="MHLFip0s-MAFoOC3pPTf-5" value="coordena" style="shape=rhombus;perimeter=rhombusPerimeter;whiteSpace=wrap;html=1;align=center;" parent="1" vertex="1">
          <mxGeometry x="340" y="30" width="120" height="60" as="geometry" />
        </mxCell>
        <mxCell id="ZPEPCrmAZm1LolxrVtWU-14" style="edgeStyle=orthogonalEdgeStyle;rounded=0;orthogonalLoop=1;jettySize=auto;html=1;exitX=0.5;exitY=1;exitDx=0;exitDy=0;entryX=0.5;entryY=0;entryDx=0;entryDy=0;endArrow=none;endFill=0;" edge="1" parent="1" source="MHLFip0s-MAFoOC3pPTf-6" target="ZPEPCrmAZm1LolxrVtWU-11">
          <mxGeometry relative="1" as="geometry" />
        </mxCell>
        <mxCell id="MHLFip0s-MAFoOC3pPTf-6" value="Cursos" style="whiteSpace=wrap;html=1;align=center;" parent="1" vertex="1">
          <mxGeometry x="530" y="40" width="100" height="40" as="geometry" />
        </mxCell>
        <mxCell id="MHLFip0s-MAFoOC3pPTf-9" style="edgeStyle=orthogonalEdgeStyle;rounded=0;orthogonalLoop=1;jettySize=auto;html=1;exitX=1;exitY=0.5;exitDx=0;exitDy=0;entryX=0;entryY=0.5;entryDx=0;entryDy=0;endArrow=none;endFill=0;" parent="1" source="MHLFip0s-MAFoOC3pPTf-7" target="MHLFip0s-MAFoOC3pPTf-5" edge="1">
          <mxGeometry relative="1" as="geometry" />
        </mxCell>
        <mxCell id="MHLFip0s-MAFoOC3pPTf-7" value="Coordenador" style="whiteSpace=wrap;html=1;align=center;" parent="1" vertex="1">
          <mxGeometry x="180" y="40" width="100" height="40" as="geometry" />
        </mxCell>
        <mxCell id="MHLFip0s-MAFoOC3pPTf-8" value="Relationship" style="shape=rhombus;perimeter=rhombusPerimeter;whiteSpace=wrap;html=1;align=center;" parent="1" vertex="1">
          <mxGeometry x="20" y="450" width="120" height="60" as="geometry" />
        </mxCell>
        <mxCell id="MHLFip0s-MAFoOC3pPTf-11" value="1" style="text;html=1;align=center;verticalAlign=middle;resizable=0;points=[];autosize=1;strokeColor=none;fillColor=none;" parent="1" vertex="1">
          <mxGeometry x="280" y="40" width="20" height="20" as="geometry" />
        </mxCell>
        <mxCell id="MHLFip0s-MAFoOC3pPTf-12" value="N" style="text;html=1;align=center;verticalAlign=middle;resizable=0;points=[];autosize=1;strokeColor=none;fillColor=none;" parent="1" vertex="1">
          <mxGeometry x="510" y="40" width="20" height="20" as="geometry" />
        </mxCell>
        <mxCell id="MHLFip0s-MAFoOC3pPTf-16" style="edgeStyle=orthogonalEdgeStyle;rounded=0;orthogonalLoop=1;jettySize=auto;html=1;exitX=0.5;exitY=1;exitDx=0;exitDy=0;endArrow=none;endFill=0;" parent="1" source="MHLFip0s-MAFoOC3pPTf-13" target="MHLFip0s-MAFoOC3pPTf-6" edge="1">
          <mxGeometry relative="1" as="geometry" />
        </mxCell>
        <mxCell id="MHLFip0s-MAFoOC3pPTf-13" value="oferece" style="shape=rhombus;perimeter=rhombusPerimeter;whiteSpace=wrap;html=1;align=center;" parent="1" vertex="1">
          <mxGeometry x="520" y="-100" width="120" height="60" as="geometry" />
        </mxCell>
        <mxCell id="MHLFip0s-MAFoOC3pPTf-17" style="edgeStyle=orthogonalEdgeStyle;rounded=0;orthogonalLoop=1;jettySize=auto;html=1;exitX=0.5;exitY=1;exitDx=0;exitDy=0;entryX=0.5;entryY=0;entryDx=0;entryDy=0;endArrow=none;endFill=0;" parent="1" source="MHLFip0s-MAFoOC3pPTf-14" target="MHLFip0s-MAFoOC3pPTf-13" edge="1">
          <mxGeometry relative="1" as="geometry" />
        </mxCell>
        <mxCell id="MHLFip0s-MAFoOC3pPTf-14" value="Faculdade" style="whiteSpace=wrap;html=1;align=center;" parent="1" vertex="1">
          <mxGeometry x="530" y="-230" width="100" height="40" as="geometry" />
        </mxCell>
        <mxCell id="MHLFip0s-MAFoOC3pPTf-18" value="1" style="text;html=1;align=center;verticalAlign=middle;resizable=0;points=[];autosize=1;strokeColor=none;fillColor=none;" parent="1" vertex="1">
          <mxGeometry x="580" y="-190" width="20" height="20" as="geometry" />
        </mxCell>
        <mxCell id="MHLFip0s-MAFoOC3pPTf-19" value="N" style="text;html=1;align=center;verticalAlign=middle;resizable=0;points=[];autosize=1;strokeColor=none;fillColor=none;" parent="1" vertex="1">
          <mxGeometry x="580" y="20" width="20" height="20" as="geometry" />
        </mxCell>
        <mxCell id="MHLFip0s-MAFoOC3pPTf-21" style="edgeStyle=orthogonalEdgeStyle;rounded=0;orthogonalLoop=1;jettySize=auto;html=1;exitX=0;exitY=0.5;exitDx=0;exitDy=0;entryX=1;entryY=0.5;entryDx=0;entryDy=0;endArrow=none;endFill=0;" parent="1" source="MHLFip0s-MAFoOC3pPTf-20" target="MHLFip0s-MAFoOC3pPTf-6" edge="1">
          <mxGeometry relative="1" as="geometry" />
        </mxCell>
        <mxCell id="MHLFip0s-MAFoOC3pPTf-23" style="edgeStyle=orthogonalEdgeStyle;rounded=0;orthogonalLoop=1;jettySize=auto;html=1;exitX=1;exitY=0.5;exitDx=0;exitDy=0;entryX=0;entryY=0.5;entryDx=0;entryDy=0;endArrow=none;endFill=0;" parent="1" source="MHLFip0s-MAFoOC3pPTf-20" target="MHLFip0s-MAFoOC3pPTf-22" edge="1">
          <mxGeometry relative="1" as="geometry" />
        </mxCell>
        <mxCell id="MHLFip0s-MAFoOC3pPTf-20" value="matriculados" style="shape=rhombus;perimeter=rhombusPerimeter;whiteSpace=wrap;html=1;align=center;" parent="1" vertex="1">
          <mxGeometry x="710" y="30" width="120" height="60" as="geometry" />
        </mxCell>
        <mxCell id="MHLFip0s-MAFoOC3pPTf-27" style="edgeStyle=orthogonalEdgeStyle;rounded=0;orthogonalLoop=1;jettySize=auto;html=1;exitX=0.5;exitY=1;exitDx=0;exitDy=0;entryX=0.5;entryY=0;entryDx=0;entryDy=0;endArrow=none;endFill=0;" parent="1" source="MHLFip0s-MAFoOC3pPTf-22" target="MHLFip0s-MAFoOC3pPTf-26" edge="1">
          <mxGeometry relative="1" as="geometry" />
        </mxCell>
        <mxCell id="MHLFip0s-MAFoOC3pPTf-22" value="Alunos" style="whiteSpace=wrap;html=1;align=center;" parent="1" vertex="1">
          <mxGeometry x="890" y="40" width="100" height="40" as="geometry" />
        </mxCell>
        <mxCell id="MHLFip0s-MAFoOC3pPTf-24" value="N" style="text;html=1;align=center;verticalAlign=middle;resizable=0;points=[];autosize=1;strokeColor=none;fillColor=none;" parent="1" vertex="1">
          <mxGeometry x="630" y="40" width="20" height="20" as="geometry" />
        </mxCell>
        <mxCell id="MHLFip0s-MAFoOC3pPTf-25" value="N" style="text;html=1;align=center;verticalAlign=middle;resizable=0;points=[];autosize=1;strokeColor=none;fillColor=none;" parent="1" vertex="1">
          <mxGeometry x="870" y="40" width="20" height="20" as="geometry" />
        </mxCell>
        <mxCell id="MHLFip0s-MAFoOC3pPTf-29" style="edgeStyle=orthogonalEdgeStyle;rounded=0;orthogonalLoop=1;jettySize=auto;html=1;exitX=0.5;exitY=1;exitDx=0;exitDy=0;entryX=0.5;entryY=0;entryDx=0;entryDy=0;endArrow=none;endFill=0;" parent="1" source="MHLFip0s-MAFoOC3pPTf-26" target="MHLFip0s-MAFoOC3pPTf-28" edge="1">
          <mxGeometry relative="1" as="geometry" />
        </mxCell>
        <mxCell id="MHLFip0s-MAFoOC3pPTf-26" value="pagar" style="shape=rhombus;perimeter=rhombusPerimeter;whiteSpace=wrap;html=1;align=center;" parent="1" vertex="1">
          <mxGeometry x="880" y="180" width="120" height="60" as="geometry" />
        </mxCell>
        <mxCell id="ZPEPCrmAZm1LolxrVtWU-7" style="edgeStyle=orthogonalEdgeStyle;rounded=0;orthogonalLoop=1;jettySize=auto;html=1;entryX=0.5;entryY=0;entryDx=0;entryDy=0;endArrow=none;endFill=0;exitX=0.5;exitY=1;exitDx=0;exitDy=0;" edge="1" parent="1" source="MHLFip0s-MAFoOC3pPTf-28" target="ZPEPCrmAZm1LolxrVtWU-6">
          <mxGeometry relative="1" as="geometry">
            <mxPoint x="950" y="380" as="sourcePoint" />
          </mxGeometry>
        </mxCell>
        <mxCell id="MHLFip0s-MAFoOC3pPTf-28" value="mensalidade" style="whiteSpace=wrap;html=1;align=center;" parent="1" vertex="1">
          <mxGeometry x="890" y="320" width="100" height="40" as="geometry" />
        </mxCell>
        <mxCell id="ZPEPCrmAZm1LolxrVtWU-2" style="edgeStyle=orthogonalEdgeStyle;rounded=0;orthogonalLoop=1;jettySize=auto;html=1;exitX=0.5;exitY=1;exitDx=0;exitDy=0;entryX=0.613;entryY=-0.033;entryDx=0;entryDy=0;entryPerimeter=0;endArrow=none;endFill=0;" edge="1" parent="1" source="ZPEPCrmAZm1LolxrVtWU-1" target="MHLFip0s-MAFoOC3pPTf-7">
          <mxGeometry relative="1" as="geometry" />
        </mxCell>
        <mxCell id="ZPEPCrmAZm1LolxrVtWU-3" style="edgeStyle=orthogonalEdgeStyle;rounded=0;orthogonalLoop=1;jettySize=auto;html=1;exitX=1;exitY=0.5;exitDx=0;exitDy=0;entryX=0;entryY=0.5;entryDx=0;entryDy=0;endArrow=none;endFill=0;" edge="1" parent="1" source="ZPEPCrmAZm1LolxrVtWU-1" target="MHLFip0s-MAFoOC3pPTf-14">
          <mxGeometry relative="1" as="geometry" />
        </mxCell>
        <mxCell id="ZPEPCrmAZm1LolxrVtWU-1" value="trabalha" style="shape=rhombus;perimeter=rhombusPerimeter;whiteSpace=wrap;html=1;align=center;" vertex="1" parent="1">
          <mxGeometry x="180" y="-240" width="120" height="60" as="geometry" />
        </mxCell>
        <mxCell id="ZPEPCrmAZm1LolxrVtWU-4" value="N" style="text;html=1;align=center;verticalAlign=middle;resizable=0;points=[];autosize=1;strokeColor=none;fillColor=none;" vertex="1" parent="1">
          <mxGeometry x="250" y="10" width="20" height="20" as="geometry" />
        </mxCell>
        <mxCell id="ZPEPCrmAZm1LolxrVtWU-5" value="1" style="text;html=1;align=center;verticalAlign=middle;resizable=0;points=[];autosize=1;strokeColor=none;fillColor=none;" vertex="1" parent="1">
          <mxGeometry x="510" y="-230" width="20" height="20" as="geometry" />
        </mxCell>
        <mxCell id="ZPEPCrmAZm1LolxrVtWU-10" style="edgeStyle=orthogonalEdgeStyle;rounded=0;orthogonalLoop=1;jettySize=auto;html=1;exitX=0.5;exitY=1;exitDx=0;exitDy=0;entryX=0.5;entryY=0;entryDx=0;entryDy=0;endArrow=none;endFill=0;" edge="1" parent="1" source="ZPEPCrmAZm1LolxrVtWU-6" target="ZPEPCrmAZm1LolxrVtWU-9">
          <mxGeometry relative="1" as="geometry" />
        </mxCell>
        <mxCell id="ZPEPCrmAZm1LolxrVtWU-6" value="possui" style="shape=rhombus;perimeter=rhombusPerimeter;whiteSpace=wrap;html=1;align=center;" vertex="1" parent="1">
          <mxGeometry x="880" y="460" width="120" height="60" as="geometry" />
        </mxCell>
        <mxCell id="ZPEPCrmAZm1LolxrVtWU-8" value="N" style="text;html=1;align=center;verticalAlign=middle;resizable=0;points=[];autosize=1;strokeColor=none;fillColor=none;" vertex="1" parent="1">
          <mxGeometry x="910" y="290" width="20" height="20" as="geometry" />
        </mxCell>
        <mxCell id="ZPEPCrmAZm1LolxrVtWU-25" style="edgeStyle=orthogonalEdgeStyle;rounded=0;orthogonalLoop=1;jettySize=auto;html=1;exitX=1;exitY=0.5;exitDx=0;exitDy=0;entryX=1;entryY=0.5;entryDx=0;entryDy=0;endArrow=none;endFill=0;" edge="1" parent="1" source="ZPEPCrmAZm1LolxrVtWU-9" target="ZPEPCrmAZm1LolxrVtWU-23">
          <mxGeometry relative="1" as="geometry" />
        </mxCell>
        <mxCell id="ZPEPCrmAZm1LolxrVtWU-9" value="Critérios" style="whiteSpace=wrap;html=1;align=center;" vertex="1" parent="1">
          <mxGeometry x="890" y="610" width="100" height="40" as="geometry" />
        </mxCell>
        <mxCell id="ZPEPCrmAZm1LolxrVtWU-15" style="edgeStyle=orthogonalEdgeStyle;rounded=0;orthogonalLoop=1;jettySize=auto;html=1;exitX=0.5;exitY=1;exitDx=0;exitDy=0;entryX=0.5;entryY=0;entryDx=0;entryDy=0;endArrow=none;endFill=0;" edge="1" parent="1" source="ZPEPCrmAZm1LolxrVtWU-11" target="ZPEPCrmAZm1LolxrVtWU-13">
          <mxGeometry relative="1" as="geometry" />
        </mxCell>
        <mxCell id="ZPEPCrmAZm1LolxrVtWU-11" value="composto" style="shape=rhombus;perimeter=rhombusPerimeter;whiteSpace=wrap;html=1;align=center;" vertex="1" parent="1">
          <mxGeometry x="520" y="220" width="120" height="60" as="geometry" />
        </mxCell>
        <mxCell id="ZPEPCrmAZm1LolxrVtWU-18" style="edgeStyle=orthogonalEdgeStyle;rounded=0;orthogonalLoop=1;jettySize=auto;html=1;exitX=0.5;exitY=1;exitDx=0;exitDy=0;entryX=1;entryY=0.5;entryDx=0;entryDy=0;endArrow=none;endFill=0;" edge="1" parent="1" source="ZPEPCrmAZm1LolxrVtWU-13" target="ZPEPCrmAZm1LolxrVtWU-16">
          <mxGeometry relative="1" as="geometry" />
        </mxCell>
        <mxCell id="ZPEPCrmAZm1LolxrVtWU-13" value="Módulo" style="shape=ext;margin=3;double=1;whiteSpace=wrap;html=1;align=center;" vertex="1" parent="1">
          <mxGeometry x="530" y="380" width="100" height="40" as="geometry" />
        </mxCell>
        <mxCell id="ZPEPCrmAZm1LolxrVtWU-19" style="edgeStyle=orthogonalEdgeStyle;rounded=0;orthogonalLoop=1;jettySize=auto;html=1;exitX=0;exitY=0.5;exitDx=0;exitDy=0;entryX=0.5;entryY=0;entryDx=0;entryDy=0;endArrow=none;endFill=0;" edge="1" parent="1" source="ZPEPCrmAZm1LolxrVtWU-16" target="ZPEPCrmAZm1LolxrVtWU-17">
          <mxGeometry relative="1" as="geometry" />
        </mxCell>
        <mxCell id="ZPEPCrmAZm1LolxrVtWU-16" value="" style="triangle;whiteSpace=wrap;html=1;rotation=-90;" vertex="1" parent="1">
          <mxGeometry x="550" y="480" width="60" height="80" as="geometry" />
        </mxCell>
        <mxCell id="ZPEPCrmAZm1LolxrVtWU-116" style="edgeStyle=orthogonalEdgeStyle;rounded=0;orthogonalLoop=1;jettySize=auto;html=1;exitX=0.5;exitY=1;exitDx=0;exitDy=0;entryX=0.5;entryY=0;entryDx=0;entryDy=0;endArrow=none;endFill=0;" edge="1" parent="1" source="ZPEPCrmAZm1LolxrVtWU-17" target="ZPEPCrmAZm1LolxrVtWU-115">
          <mxGeometry relative="1" as="geometry" />
        </mxCell>
        <mxCell id="ZPEPCrmAZm1LolxrVtWU-17" value="ministrado" style="whiteSpace=wrap;html=1;align=center;" vertex="1" parent="1">
          <mxGeometry x="530" y="620" width="100" height="40" as="geometry" />
        </mxCell>
        <mxCell id="ZPEPCrmAZm1LolxrVtWU-20" value="1" style="text;html=1;align=center;verticalAlign=middle;resizable=0;points=[];autosize=1;strokeColor=none;fillColor=none;" vertex="1" parent="1">
          <mxGeometry x="910" y="360" width="20" height="20" as="geometry" />
        </mxCell>
        <mxCell id="ZPEPCrmAZm1LolxrVtWU-22" value="1" style="text;html=1;align=center;verticalAlign=middle;resizable=0;points=[];autosize=1;strokeColor=none;fillColor=none;" vertex="1" parent="1">
          <mxGeometry x="910" y="580" width="20" height="20" as="geometry" />
        </mxCell>
        <mxCell id="ZPEPCrmAZm1LolxrVtWU-23" value="" style="triangle;whiteSpace=wrap;html=1;rotation=-180;" vertex="1" parent="1">
          <mxGeometry x="1060" y="590" width="60" height="80" as="geometry" />
        </mxCell>
        <mxCell id="ZPEPCrmAZm1LolxrVtWU-26" value="1" style="text;html=1;align=center;verticalAlign=middle;resizable=0;points=[];autosize=1;strokeColor=none;fillColor=none;" vertex="1" parent="1">
          <mxGeometry x="580" y="80" width="20" height="20" as="geometry" />
        </mxCell>
        <mxCell id="ZPEPCrmAZm1LolxrVtWU-27" value="N" style="text;html=1;align=center;verticalAlign=middle;resizable=0;points=[];autosize=1;strokeColor=none;fillColor=none;" vertex="1" parent="1">
          <mxGeometry x="580" y="360" width="20" height="20" as="geometry" />
        </mxCell>
        <mxCell id="ZPEPCrmAZm1LolxrVtWU-28" value="Attribute" style="ellipse;whiteSpace=wrap;html=1;align=center;" vertex="1" parent="1">
          <mxGeometry x="40" y="390" width="100" height="40" as="geometry" />
        </mxCell>
        <mxCell id="ZPEPCrmAZm1LolxrVtWU-29" value="" style="ellipse;whiteSpace=wrap;html=1;align=center;" vertex="1" parent="1">
          <mxGeometry x="270" y="240" width="40" height="20" as="geometry" />
        </mxCell>
        <mxCell id="ZPEPCrmAZm1LolxrVtWU-30" value="" style="ellipse;whiteSpace=wrap;html=1;align=center;" vertex="1" parent="1">
          <mxGeometry x="280" y="250" width="40" height="20" as="geometry" />
        </mxCell>
        <mxCell id="ZPEPCrmAZm1LolxrVtWU-45" style="edgeStyle=orthogonalEdgeStyle;rounded=0;orthogonalLoop=1;jettySize=auto;html=1;exitX=1;exitY=0.5;exitDx=0;exitDy=0;entryX=0.408;entryY=1.001;entryDx=0;entryDy=0;entryPerimeter=0;endArrow=none;endFill=0;" edge="1" parent="1" source="ZPEPCrmAZm1LolxrVtWU-31" target="MHLFip0s-MAFoOC3pPTf-6">
          <mxGeometry relative="1" as="geometry" />
        </mxCell>
        <mxCell id="ZPEPCrmAZm1LolxrVtWU-31" value="" style="ellipse;whiteSpace=wrap;html=1;align=center;" vertex="1" parent="1">
          <mxGeometry x="510" y="150" width="40" height="20" as="geometry" />
        </mxCell>
        <mxCell id="ZPEPCrmAZm1LolxrVtWU-46" style="edgeStyle=orthogonalEdgeStyle;rounded=0;orthogonalLoop=1;jettySize=auto;html=1;exitX=0;exitY=0.5;exitDx=0;exitDy=0;entryX=0.75;entryY=1;entryDx=0;entryDy=0;endArrow=none;endFill=0;" edge="1" parent="1" source="ZPEPCrmAZm1LolxrVtWU-32" target="MHLFip0s-MAFoOC3pPTf-6">
          <mxGeometry relative="1" as="geometry" />
        </mxCell>
        <mxCell id="ZPEPCrmAZm1LolxrVtWU-32" value="" style="ellipse;whiteSpace=wrap;html=1;align=center;" vertex="1" parent="1">
          <mxGeometry x="650" y="100" width="40" height="20" as="geometry" />
        </mxCell>
        <mxCell id="ZPEPCrmAZm1LolxrVtWU-44" style="edgeStyle=orthogonalEdgeStyle;rounded=0;orthogonalLoop=1;jettySize=auto;html=1;exitX=1;exitY=0.5;exitDx=0;exitDy=0;entryX=0.25;entryY=1;entryDx=0;entryDy=0;endArrow=none;endFill=0;" edge="1" parent="1" source="ZPEPCrmAZm1LolxrVtWU-33" target="MHLFip0s-MAFoOC3pPTf-6">
          <mxGeometry relative="1" as="geometry" />
        </mxCell>
        <mxCell id="ZPEPCrmAZm1LolxrVtWU-33" value="" style="ellipse;whiteSpace=wrap;html=1;align=center;" vertex="1" parent="1">
          <mxGeometry x="490" y="100" width="40" height="20" as="geometry" />
        </mxCell>
        <mxCell id="ZPEPCrmAZm1LolxrVtWU-34" value="*código" style="text;html=1;align=center;verticalAlign=middle;resizable=0;points=[];autosize=1;strokeColor=none;fillColor=none;" vertex="1" parent="1">
          <mxGeometry x="455" y="150" width="60" height="20" as="geometry" />
        </mxCell>
        <mxCell id="ZPEPCrmAZm1LolxrVtWU-35" value="nome" style="text;html=1;align=center;verticalAlign=middle;resizable=0;points=[];autosize=1;strokeColor=none;fillColor=none;" vertex="1" parent="1">
          <mxGeometry x="440" y="100" width="50" height="20" as="geometry" />
        </mxCell>
        <mxCell id="ZPEPCrmAZm1LolxrVtWU-36" value="Carga horária" style="text;html=1;align=center;verticalAlign=middle;resizable=0;points=[];autosize=1;strokeColor=none;fillColor=none;" vertex="1" parent="1">
          <mxGeometry x="630" y="120" width="90" height="20" as="geometry" />
        </mxCell>
        <mxCell id="ZPEPCrmAZm1LolxrVtWU-53" style="edgeStyle=orthogonalEdgeStyle;rounded=0;orthogonalLoop=1;jettySize=auto;html=1;exitX=0;exitY=0.5;exitDx=0;exitDy=0;entryX=1;entryY=0.25;entryDx=0;entryDy=0;endArrow=none;endFill=0;" edge="1" parent="1" source="ZPEPCrmAZm1LolxrVtWU-47" target="MHLFip0s-MAFoOC3pPTf-22">
          <mxGeometry relative="1" as="geometry" />
        </mxCell>
        <mxCell id="ZPEPCrmAZm1LolxrVtWU-47" value="" style="ellipse;whiteSpace=wrap;html=1;align=center;" vertex="1" parent="1">
          <mxGeometry x="1040" y="20" width="40" height="20" as="geometry" />
        </mxCell>
        <mxCell id="ZPEPCrmAZm1LolxrVtWU-49" value="Attribute" style="ellipse;shape=doubleEllipse;margin=3;whiteSpace=wrap;html=1;align=center;shadow=0;sketch=0;" vertex="1" parent="1">
          <mxGeometry x="250" y="330" width="100" height="40" as="geometry" />
        </mxCell>
        <mxCell id="ZPEPCrmAZm1LolxrVtWU-52" style="edgeStyle=orthogonalEdgeStyle;rounded=0;orthogonalLoop=1;jettySize=auto;html=1;exitX=0;exitY=0.5;exitDx=0;exitDy=0;entryX=1;entryY=0.75;entryDx=0;entryDy=0;endArrow=none;endFill=0;" edge="1" parent="1" source="ZPEPCrmAZm1LolxrVtWU-50" target="MHLFip0s-MAFoOC3pPTf-22">
          <mxGeometry relative="1" as="geometry" />
        </mxCell>
        <mxCell id="ZPEPCrmAZm1LolxrVtWU-50" value="" style="ellipse;shape=doubleEllipse;margin=3;whiteSpace=wrap;html=1;align=center;shadow=0;sketch=0;" vertex="1" parent="1">
          <mxGeometry x="1040" y="70" width="40" height="20" as="geometry" />
        </mxCell>
        <mxCell id="ZPEPCrmAZm1LolxrVtWU-54" value="nome" style="text;html=1;align=center;verticalAlign=middle;resizable=0;points=[];autosize=1;strokeColor=none;fillColor=none;" vertex="1" parent="1">
          <mxGeometry x="1075" y="20" width="50" height="20" as="geometry" />
        </mxCell>
        <mxCell id="ZPEPCrmAZm1LolxrVtWU-55" value="telefone" style="text;html=1;align=center;verticalAlign=middle;resizable=0;points=[];autosize=1;strokeColor=none;fillColor=none;" vertex="1" parent="1">
          <mxGeometry x="1075" y="70" width="60" height="20" as="geometry" />
        </mxCell>
        <mxCell id="ZPEPCrmAZm1LolxrVtWU-56" value="1" style="text;html=1;align=center;verticalAlign=middle;resizable=0;points=[];autosize=1;strokeColor=none;fillColor=none;" vertex="1" parent="1">
          <mxGeometry x="920" y="80" width="20" height="20" as="geometry" />
        </mxCell>
        <mxCell id="ZPEPCrmAZm1LolxrVtWU-64" style="edgeStyle=orthogonalEdgeStyle;rounded=0;orthogonalLoop=1;jettySize=auto;html=1;exitX=0;exitY=0.5;exitDx=0;exitDy=0;endArrow=none;endFill=0;" edge="1" parent="1" source="ZPEPCrmAZm1LolxrVtWU-57" target="ZPEPCrmAZm1LolxrVtWU-23">
          <mxGeometry relative="1" as="geometry" />
        </mxCell>
        <mxCell id="ZPEPCrmAZm1LolxrVtWU-57" value="12 mensalidades" style="whiteSpace=wrap;html=1;align=center;shadow=0;sketch=0;" vertex="1" parent="1">
          <mxGeometry x="1180" y="810" width="100" height="40" as="geometry" />
        </mxCell>
        <mxCell id="ZPEPCrmAZm1LolxrVtWU-61" style="edgeStyle=orthogonalEdgeStyle;rounded=0;orthogonalLoop=1;jettySize=auto;html=1;exitX=0;exitY=0.5;exitDx=0;exitDy=0;entryX=0;entryY=0.5;entryDx=0;entryDy=0;endArrow=none;endFill=0;" edge="1" parent="1" source="ZPEPCrmAZm1LolxrVtWU-58" target="ZPEPCrmAZm1LolxrVtWU-23">
          <mxGeometry relative="1" as="geometry" />
        </mxCell>
        <mxCell id="ZPEPCrmAZm1LolxrVtWU-58" value="6 mensalidades" style="whiteSpace=wrap;html=1;align=center;shadow=0;sketch=0;" vertex="1" parent="1">
          <mxGeometry x="1180" y="700" width="100" height="40" as="geometry" />
        </mxCell>
        <mxCell id="ZPEPCrmAZm1LolxrVtWU-62" style="edgeStyle=orthogonalEdgeStyle;rounded=0;orthogonalLoop=1;jettySize=auto;html=1;exitX=0;exitY=0.5;exitDx=0;exitDy=0;entryX=-0.042;entryY=0.654;entryDx=0;entryDy=0;entryPerimeter=0;endArrow=none;endFill=0;" edge="1" parent="1" source="ZPEPCrmAZm1LolxrVtWU-59" target="ZPEPCrmAZm1LolxrVtWU-23">
          <mxGeometry relative="1" as="geometry" />
        </mxCell>
        <mxCell id="ZPEPCrmAZm1LolxrVtWU-59" value="3 mensalidades" style="whiteSpace=wrap;html=1;align=center;shadow=0;sketch=0;" vertex="1" parent="1">
          <mxGeometry x="1180" y="560" width="100" height="40" as="geometry" />
        </mxCell>
        <mxCell id="ZPEPCrmAZm1LolxrVtWU-63" style="edgeStyle=orthogonalEdgeStyle;rounded=0;orthogonalLoop=1;jettySize=auto;html=1;exitX=0;exitY=0.25;exitDx=0;exitDy=0;entryX=0.5;entryY=1;entryDx=0;entryDy=0;endArrow=none;endFill=0;" edge="1" parent="1" source="ZPEPCrmAZm1LolxrVtWU-60" target="ZPEPCrmAZm1LolxrVtWU-23">
          <mxGeometry relative="1" as="geometry" />
        </mxCell>
        <mxCell id="ZPEPCrmAZm1LolxrVtWU-60" value="1 mensalidade" style="whiteSpace=wrap;html=1;align=center;shadow=0;sketch=0;" vertex="1" parent="1">
          <mxGeometry x="1180" y="450" width="100" height="40" as="geometry" />
        </mxCell>
        <mxCell id="ZPEPCrmAZm1LolxrVtWU-75" style="edgeStyle=orthogonalEdgeStyle;rounded=0;orthogonalLoop=1;jettySize=auto;html=1;exitX=0;exitY=0.5;exitDx=0;exitDy=0;entryX=1;entryY=0.5;entryDx=0;entryDy=0;endArrow=none;endFill=0;" edge="1" parent="1" source="ZPEPCrmAZm1LolxrVtWU-70" target="ZPEPCrmAZm1LolxrVtWU-60">
          <mxGeometry relative="1" as="geometry" />
        </mxCell>
        <mxCell id="ZPEPCrmAZm1LolxrVtWU-70" value="" style="ellipse;whiteSpace=wrap;html=1;align=center;" vertex="1" parent="1">
          <mxGeometry x="1360" y="460" width="40" height="20" as="geometry" />
        </mxCell>
        <mxCell id="ZPEPCrmAZm1LolxrVtWU-76" style="edgeStyle=orthogonalEdgeStyle;rounded=0;orthogonalLoop=1;jettySize=auto;html=1;exitX=0;exitY=0.5;exitDx=0;exitDy=0;entryX=1;entryY=0.5;entryDx=0;entryDy=0;endArrow=none;endFill=0;" edge="1" parent="1" source="ZPEPCrmAZm1LolxrVtWU-71" target="ZPEPCrmAZm1LolxrVtWU-59">
          <mxGeometry relative="1" as="geometry" />
        </mxCell>
        <mxCell id="ZPEPCrmAZm1LolxrVtWU-71" value="" style="ellipse;whiteSpace=wrap;html=1;align=center;" vertex="1" parent="1">
          <mxGeometry x="1360" y="570" width="40" height="20" as="geometry" />
        </mxCell>
        <mxCell id="ZPEPCrmAZm1LolxrVtWU-77" style="edgeStyle=orthogonalEdgeStyle;rounded=0;orthogonalLoop=1;jettySize=auto;html=1;exitX=0;exitY=0.5;exitDx=0;exitDy=0;entryX=1;entryY=0.5;entryDx=0;entryDy=0;endArrow=none;endFill=0;" edge="1" parent="1" source="ZPEPCrmAZm1LolxrVtWU-72" target="ZPEPCrmAZm1LolxrVtWU-58">
          <mxGeometry relative="1" as="geometry" />
        </mxCell>
        <mxCell id="ZPEPCrmAZm1LolxrVtWU-72" value="" style="ellipse;whiteSpace=wrap;html=1;align=center;" vertex="1" parent="1">
          <mxGeometry x="1360" y="710" width="40" height="20" as="geometry" />
        </mxCell>
        <mxCell id="ZPEPCrmAZm1LolxrVtWU-78" style="edgeStyle=orthogonalEdgeStyle;rounded=0;orthogonalLoop=1;jettySize=auto;html=1;exitX=0;exitY=0.5;exitDx=0;exitDy=0;entryX=1;entryY=0.5;entryDx=0;entryDy=0;endArrow=none;endFill=0;" edge="1" parent="1" source="ZPEPCrmAZm1LolxrVtWU-73" target="ZPEPCrmAZm1LolxrVtWU-57">
          <mxGeometry relative="1" as="geometry" />
        </mxCell>
        <mxCell id="ZPEPCrmAZm1LolxrVtWU-73" value="" style="ellipse;whiteSpace=wrap;html=1;align=center;" vertex="1" parent="1">
          <mxGeometry x="1370" y="820" width="40" height="20" as="geometry" />
        </mxCell>
        <mxCell id="ZPEPCrmAZm1LolxrVtWU-74" style="edgeStyle=orthogonalEdgeStyle;rounded=0;orthogonalLoop=1;jettySize=auto;html=1;exitX=0.5;exitY=0;exitDx=0;exitDy=0;entryX=1;entryY=0;entryDx=0;entryDy=0;endArrow=none;endFill=0;" edge="1" parent="1" source="ZPEPCrmAZm1LolxrVtWU-70" target="ZPEPCrmAZm1LolxrVtWU-70">
          <mxGeometry relative="1" as="geometry" />
        </mxCell>
        <mxCell id="ZPEPCrmAZm1LolxrVtWU-79" value="20% desconto" style="text;html=1;align=center;verticalAlign=middle;resizable=0;points=[];autosize=1;strokeColor=none;fillColor=none;" vertex="1" parent="1">
          <mxGeometry x="1400" y="460" width="90" height="20" as="geometry" />
        </mxCell>
        <mxCell id="ZPEPCrmAZm1LolxrVtWU-80" value="15% desconto" style="text;html=1;align=center;verticalAlign=middle;resizable=0;points=[];autosize=1;strokeColor=none;fillColor=none;" vertex="1" parent="1">
          <mxGeometry x="1400" y="570" width="90" height="20" as="geometry" />
        </mxCell>
        <mxCell id="ZPEPCrmAZm1LolxrVtWU-81" value="10% desconto" style="text;html=1;align=center;verticalAlign=middle;resizable=0;points=[];autosize=1;strokeColor=none;fillColor=none;" vertex="1" parent="1">
          <mxGeometry x="1400" y="710" width="90" height="20" as="geometry" />
        </mxCell>
        <mxCell id="ZPEPCrmAZm1LolxrVtWU-82" value="sem desconto" style="text;html=1;align=center;verticalAlign=middle;resizable=0;points=[];autosize=1;strokeColor=none;fillColor=none;" vertex="1" parent="1">
          <mxGeometry x="1410" y="820" width="90" height="20" as="geometry" />
        </mxCell>
        <mxCell id="ZPEPCrmAZm1LolxrVtWU-83" value="" style="ellipse;whiteSpace=wrap;html=1;align=center;" vertex="1" parent="1">
          <mxGeometry x="280" y="250" width="40" height="20" as="geometry" />
        </mxCell>
        <mxCell id="ZPEPCrmAZm1LolxrVtWU-84" value="" style="ellipse;whiteSpace=wrap;html=1;align=center;" vertex="1" parent="1">
          <mxGeometry x="290" y="260" width="40" height="20" as="geometry" />
        </mxCell>
        <mxCell id="ZPEPCrmAZm1LolxrVtWU-85" value="" style="ellipse;whiteSpace=wrap;html=1;align=center;" vertex="1" parent="1">
          <mxGeometry x="290" y="260" width="40" height="20" as="geometry" />
        </mxCell>
        <mxCell id="ZPEPCrmAZm1LolxrVtWU-86" value="" style="ellipse;whiteSpace=wrap;html=1;align=center;" vertex="1" parent="1">
          <mxGeometry x="300" y="270" width="40" height="20" as="geometry" />
        </mxCell>
        <mxCell id="ZPEPCrmAZm1LolxrVtWU-87" value="" style="ellipse;whiteSpace=wrap;html=1;align=center;" vertex="1" parent="1">
          <mxGeometry x="300" y="270" width="40" height="20" as="geometry" />
        </mxCell>
        <mxCell id="ZPEPCrmAZm1LolxrVtWU-88" value="" style="ellipse;whiteSpace=wrap;html=1;align=center;" vertex="1" parent="1">
          <mxGeometry x="310" y="280" width="40" height="20" as="geometry" />
        </mxCell>
        <mxCell id="ZPEPCrmAZm1LolxrVtWU-93" style="edgeStyle=orthogonalEdgeStyle;rounded=0;orthogonalLoop=1;jettySize=auto;html=1;exitX=0;exitY=0.5;exitDx=0;exitDy=0;entryX=1;entryY=0.75;entryDx=0;entryDy=0;endArrow=none;endFill=0;" edge="1" parent="1" source="ZPEPCrmAZm1LolxrVtWU-89" target="ZPEPCrmAZm1LolxrVtWU-13">
          <mxGeometry relative="1" as="geometry" />
        </mxCell>
        <mxCell id="ZPEPCrmAZm1LolxrVtWU-89" value="" style="ellipse;whiteSpace=wrap;html=1;align=center;" vertex="1" parent="1">
          <mxGeometry x="690" y="410" width="40" height="20" as="geometry" />
        </mxCell>
        <mxCell id="ZPEPCrmAZm1LolxrVtWU-92" style="edgeStyle=orthogonalEdgeStyle;rounded=0;orthogonalLoop=1;jettySize=auto;html=1;exitX=0;exitY=0.5;exitDx=0;exitDy=0;entryX=1;entryY=0.5;entryDx=0;entryDy=0;endArrow=none;endFill=0;" edge="1" parent="1" source="ZPEPCrmAZm1LolxrVtWU-90" target="ZPEPCrmAZm1LolxrVtWU-13">
          <mxGeometry relative="1" as="geometry" />
        </mxCell>
        <mxCell id="ZPEPCrmAZm1LolxrVtWU-90" value="" style="ellipse;whiteSpace=wrap;html=1;align=center;" vertex="1" parent="1">
          <mxGeometry x="690" y="370" width="40" height="20" as="geometry" />
        </mxCell>
        <mxCell id="ZPEPCrmAZm1LolxrVtWU-94" value="nome" style="text;html=1;align=center;verticalAlign=middle;resizable=0;points=[];autosize=1;strokeColor=none;fillColor=none;" vertex="1" parent="1">
          <mxGeometry x="725" y="370" width="50" height="20" as="geometry" />
        </mxCell>
        <mxCell id="ZPEPCrmAZm1LolxrVtWU-96" value="ementa" style="text;html=1;align=center;verticalAlign=middle;resizable=0;points=[];autosize=1;strokeColor=none;fillColor=none;" vertex="1" parent="1">
          <mxGeometry x="720" y="410" width="60" height="20" as="geometry" />
        </mxCell>
        <mxCell id="ZPEPCrmAZm1LolxrVtWU-98" value="" style="ellipse;whiteSpace=wrap;html=1;align=center;" vertex="1" parent="1">
          <mxGeometry x="310" y="280" width="40" height="20" as="geometry" />
        </mxCell>
        <mxCell id="ZPEPCrmAZm1LolxrVtWU-99" value="" style="ellipse;whiteSpace=wrap;html=1;align=center;" vertex="1" parent="1">
          <mxGeometry x="310" y="280" width="40" height="20" as="geometry" />
        </mxCell>
        <mxCell id="ZPEPCrmAZm1LolxrVtWU-100" value="" style="ellipse;whiteSpace=wrap;html=1;align=center;" vertex="1" parent="1">
          <mxGeometry x="510" y="970" width="40" height="20" as="geometry" />
        </mxCell>
        <mxCell id="ZPEPCrmAZm1LolxrVtWU-101" value="" style="ellipse;whiteSpace=wrap;html=1;align=center;" vertex="1" parent="1">
          <mxGeometry x="510" y="970" width="40" height="20" as="geometry" />
        </mxCell>
        <mxCell id="ZPEPCrmAZm1LolxrVtWU-121" style="edgeStyle=orthogonalEdgeStyle;rounded=0;orthogonalLoop=1;jettySize=auto;html=1;exitX=0.5;exitY=0;exitDx=0;exitDy=0;entryX=0.25;entryY=1;entryDx=0;entryDy=0;endArrow=none;endFill=0;" edge="1" parent="1" source="ZPEPCrmAZm1LolxrVtWU-102" target="ZPEPCrmAZm1LolxrVtWU-118">
          <mxGeometry relative="1" as="geometry" />
        </mxCell>
        <mxCell id="ZPEPCrmAZm1LolxrVtWU-102" value="" style="ellipse;whiteSpace=wrap;html=1;align=center;" vertex="1" parent="1">
          <mxGeometry x="510" y="970" width="40" height="20" as="geometry" />
        </mxCell>
        <mxCell id="ZPEPCrmAZm1LolxrVtWU-122" style="edgeStyle=orthogonalEdgeStyle;rounded=0;orthogonalLoop=1;jettySize=auto;html=1;exitX=0.5;exitY=0;exitDx=0;exitDy=0;entryX=0.75;entryY=1;entryDx=0;entryDy=0;endArrow=none;endFill=0;" edge="1" parent="1" source="ZPEPCrmAZm1LolxrVtWU-103" target="ZPEPCrmAZm1LolxrVtWU-118">
          <mxGeometry relative="1" as="geometry" />
        </mxCell>
        <mxCell id="ZPEPCrmAZm1LolxrVtWU-103" value="" style="ellipse;whiteSpace=wrap;html=1;align=center;" vertex="1" parent="1">
          <mxGeometry x="620" y="970" width="40" height="20" as="geometry" />
        </mxCell>
        <mxCell id="ZPEPCrmAZm1LolxrVtWU-112" style="edgeStyle=orthogonalEdgeStyle;rounded=0;orthogonalLoop=1;jettySize=auto;html=1;exitX=0;exitY=0.5;exitDx=0;exitDy=0;entryX=1;entryY=0.75;entryDx=0;entryDy=0;endArrow=none;endFill=0;" edge="1" parent="1" source="ZPEPCrmAZm1LolxrVtWU-104" target="ZPEPCrmAZm1LolxrVtWU-17">
          <mxGeometry relative="1" as="geometry" />
        </mxCell>
        <mxCell id="ZPEPCrmAZm1LolxrVtWU-104" value="" style="ellipse;whiteSpace=wrap;html=1;align=center;" vertex="1" parent="1">
          <mxGeometry x="690" y="680" width="40" height="20" as="geometry" />
        </mxCell>
        <mxCell id="ZPEPCrmAZm1LolxrVtWU-111" style="edgeStyle=orthogonalEdgeStyle;rounded=0;orthogonalLoop=1;jettySize=auto;html=1;exitX=0;exitY=0.5;exitDx=0;exitDy=0;entryX=1;entryY=0.5;entryDx=0;entryDy=0;endArrow=none;endFill=0;" edge="1" parent="1" source="ZPEPCrmAZm1LolxrVtWU-105" target="ZPEPCrmAZm1LolxrVtWU-17">
          <mxGeometry relative="1" as="geometry" />
        </mxCell>
        <mxCell id="ZPEPCrmAZm1LolxrVtWU-105" value="" style="ellipse;whiteSpace=wrap;html=1;align=center;" vertex="1" parent="1">
          <mxGeometry x="690" y="640" width="40" height="20" as="geometry" />
        </mxCell>
        <mxCell id="ZPEPCrmAZm1LolxrVtWU-110" style="edgeStyle=orthogonalEdgeStyle;rounded=0;orthogonalLoop=1;jettySize=auto;html=1;exitX=0;exitY=0.5;exitDx=0;exitDy=0;entryX=1;entryY=0.25;entryDx=0;entryDy=0;endArrow=none;endFill=0;" edge="1" parent="1" source="ZPEPCrmAZm1LolxrVtWU-106" target="ZPEPCrmAZm1LolxrVtWU-17">
          <mxGeometry relative="1" as="geometry" />
        </mxCell>
        <mxCell id="ZPEPCrmAZm1LolxrVtWU-106" value="" style="ellipse;whiteSpace=wrap;html=1;align=center;" vertex="1" parent="1">
          <mxGeometry x="690" y="600" width="40" height="20" as="geometry" />
        </mxCell>
        <mxCell id="ZPEPCrmAZm1LolxrVtWU-107" value="média dos alunos" style="text;html=1;align=center;verticalAlign=middle;resizable=0;points=[];autosize=1;strokeColor=none;fillColor=none;" vertex="1" parent="1">
          <mxGeometry x="730" y="640" width="110" height="20" as="geometry" />
        </mxCell>
        <mxCell id="ZPEPCrmAZm1LolxrVtWU-108" value="frequência dos alunos" style="text;html=1;align=center;verticalAlign=middle;resizable=0;points=[];autosize=1;strokeColor=none;fillColor=none;" vertex="1" parent="1">
          <mxGeometry x="730" y="680" width="130" height="20" as="geometry" />
        </mxCell>
        <mxCell id="ZPEPCrmAZm1LolxrVtWU-109" value="nome do professor" style="text;html=1;align=center;verticalAlign=middle;resizable=0;points=[];autosize=1;strokeColor=none;fillColor=none;" vertex="1" parent="1">
          <mxGeometry x="735" y="600" width="120" height="20" as="geometry" />
        </mxCell>
        <mxCell id="ZPEPCrmAZm1LolxrVtWU-113" value="1" style="text;html=1;align=center;verticalAlign=middle;resizable=0;points=[];autosize=1;strokeColor=none;fillColor=none;" vertex="1" parent="1">
          <mxGeometry x="580" y="420" width="20" height="20" as="geometry" />
        </mxCell>
        <mxCell id="ZPEPCrmAZm1LolxrVtWU-114" value="1" style="text;html=1;align=center;verticalAlign=middle;resizable=0;points=[];autosize=1;strokeColor=none;fillColor=none;" vertex="1" parent="1">
          <mxGeometry x="580" y="600" width="20" height="20" as="geometry" />
        </mxCell>
        <mxCell id="ZPEPCrmAZm1LolxrVtWU-117" style="edgeStyle=orthogonalEdgeStyle;rounded=0;orthogonalLoop=1;jettySize=auto;html=1;exitX=0.5;exitY=1;exitDx=0;exitDy=0;endArrow=none;endFill=0;entryX=0.5;entryY=0;entryDx=0;entryDy=0;" edge="1" parent="1" source="ZPEPCrmAZm1LolxrVtWU-115" target="ZPEPCrmAZm1LolxrVtWU-118">
          <mxGeometry relative="1" as="geometry">
            <mxPoint x="580.1764705882354" y="860" as="targetPoint" />
          </mxGeometry>
        </mxCell>
        <mxCell id="ZPEPCrmAZm1LolxrVtWU-115" value="possui" style="shape=rhombus;perimeter=rhombusPerimeter;whiteSpace=wrap;html=1;align=center;" vertex="1" parent="1">
          <mxGeometry x="520" y="720" width="120" height="60" as="geometry" />
        </mxCell>
        <mxCell id="ZPEPCrmAZm1LolxrVtWU-118" value="professor" style="whiteSpace=wrap;html=1;align=center;" vertex="1" parent="1">
          <mxGeometry x="530" y="870" width="100" height="40" as="geometry" />
        </mxCell>
        <mxCell id="ZPEPCrmAZm1LolxrVtWU-119" value="N" style="text;html=1;align=center;verticalAlign=middle;resizable=0;points=[];autosize=1;strokeColor=none;fillColor=none;" vertex="1" parent="1">
          <mxGeometry x="580" y="660" width="20" height="20" as="geometry" />
        </mxCell>
        <mxCell id="ZPEPCrmAZm1LolxrVtWU-120" value="1" style="text;html=1;align=center;verticalAlign=middle;resizable=0;points=[];autosize=1;strokeColor=none;fillColor=none;" vertex="1" parent="1">
          <mxGeometry x="580" y="850" width="20" height="20" as="geometry" />
        </mxCell>
        <mxCell id="ZPEPCrmAZm1LolxrVtWU-123" value="nome" style="text;html=1;align=center;verticalAlign=middle;resizable=0;points=[];autosize=1;strokeColor=none;fillColor=none;" vertex="1" parent="1">
          <mxGeometry x="465" y="980" width="50" height="20" as="geometry" />
        </mxCell>
        <mxCell id="ZPEPCrmAZm1LolxrVtWU-124" value="titulação" style="text;html=1;align=center;verticalAlign=middle;resizable=0;points=[];autosize=1;strokeColor=none;fillColor=none;" vertex="1" parent="1">
          <mxGeometry x="640" y="990" width="60" height="20" as="geometry" />
        </mxCell>
      </root>
    </mxGraphModel>
  </diagram>
</mxfile>
